<svg id="Capa_1" enable-background="new 0 0 461.34 461.34" height="512" viewBox="0 0 461.34 461.34" width="512" xmlns="http://www.w3.org/2000/svg"><g><path d="m328.508 111.726 51.5 29.733 47.838-27.619-51.499-29.733z"/><path d="m361.348 186.874-37.839 21.846v44.504l37.839-21.846z"/><path d="m245.67 253.66v44.505l47.839-27.62v-44.505z"/><path d="m293.509 305.185-47.839 27.62v44.505l47.839-27.62z"/><path d="m260.67 72.56 37.839 21.846 47.838-27.62-37.839-21.846z"/><path d="m230.67 133.573 37.839-21.847-37.839-21.846-37.839 21.846z"/><path d="m215.67 377.31v-44.505l-47.839-27.62v44.505z"/><path d="m114.992 66.786 47.839 27.62 37.839-21.846-47.839-27.62z"/><path d="m298.509 129.047-37.839 21.846 51.499 29.733 37.839-21.846z"/><path d="m391.348 214.057 42.838-24.732v-44.505l-42.838 24.733z"/><path d="m111.332 158.78 37.839 21.846 51.499-29.733-37.839-21.846z"/><path d="m137.831 253.224v-44.504l-37.839-21.846v44.504z"/><path d="m215.67 253.66-47.839-27.62v44.505l47.839 27.62z"/><path d="m230.67 227.68 51.499-29.733-51.499-29.733-51.499 29.733z"/><path d="m434.186 223.966-42.838 24.732v44.505l42.838-24.733z"/><path d="m230.67 55.239 47.838-27.619-47.838-27.62-47.839 27.62z"/><path d="m323.509 287.865v44.504l37.839-21.846v-44.504z"/><path d="m391.348 327.843v49.39l42.838-24.733v-49.389z"/><path d="m69.992 327.843-42.838-24.732v49.389l42.838 24.733z"/><path d="m81.332 141.459 51.499-29.733-47.838-27.619-51.499 29.733z"/><path d="m361.348 345.164-37.839 21.846v49.389l37.839-21.846z"/><path d="m137.831 287.865-37.839-21.846v44.504l37.839 21.846z"/><path d="m69.992 248.698-42.838-24.732v44.504l42.838 24.733z"/><path d="m69.992 214.057v-44.504l-42.838-24.733v44.505z"/><path d="m215.67 411.95-47.839-27.62v49.39l47.839 27.62z"/><path d="m293.509 384.33-47.839 27.62v49.39l47.839-27.62z"/><path d="m137.831 416.399v-49.389l-37.839-21.846v49.389z"/></g></svg>